<?xml version="1.0" encoding="UTF-8"?><svg id="Layer_2" xmlns="http://www.w3.org/2000/svg" viewBox="0 0 42.98 29.23"><g id="Layer_1-2"><path d="M1.99,1.55l15.64,14.44c.07.04.12.09.17.16l2.96,2.73c.2.18.46.27.73.27s.53-.09.73-.27L40.99,1.55c-.25-.17-.56-.27-.89-.27H2.88c-.33,0-.64.1-.89.27h0ZM16.28,16.47L1.3,2.65c-.01.07-.02.15-.02.23v23.48c0,.3.08.58.23.82l14.77-10.7h0ZM25.75,17.36l-2.66,2.46c-.44.41-1.02.61-1.59.61s-1.15-.2-1.59-.61l-2.66-2.46L2.63,27.94c.08.01.16.02.24.02h37.22c.08,0,.16,0,.24-.02l-14.6-10.58h0ZM41.68,2.65l-14.98,13.83,14.77,10.7c.14-.24.23-.52.23-.82V2.87c0-.08,0-.15-.02-.23h0ZM2.88,0h37.22c.79,0,1.51.32,2.03.85h0c.05.06.1.11.15.17.05.03.08.06.12.1.07.08.12.17.15.26.27.44.43.95.43,1.5v23.48c0,.79-.32,1.5-.85,2.03h0s-.06.06-.09.09c-.03.03-.06.06-.09.08-.5.42-1.14.68-1.84.68H2.88c-.79,0-1.51-.32-2.03-.84h0c-.52-.52-.84-1.24-.84-2.03V2.87c0-.79.32-1.5.85-2.03h0c.52-.52,1.24-.85,2.03-.85h0Z" style="fill:#fff; stroke-width:0px;"/></g></svg>