<?xml version="1.0" encoding="UTF-8"?><svg id="Layer_2" xmlns="http://www.w3.org/2000/svg" viewBox="0 0 508.1 38.45"><g id="Layer_1-2"><path d="M19.75,18.61c.29.97.54,1.98.75,3.05.2,1.07.42,2.32.66,3.75h.13c.09-1.49.2-2.9.35-4.24.15-1.33.31-2.38.48-3.14l2.06-9.66h4.65l-5.05,21.2h-4.65l-3.25-10.31c-.38-1.14-.68-2.28-.9-3.42-.22-1.14-.4-2.31-.55-3.51h-.09c-.15,1.2-.33,2.37-.55,3.51-.22,1.14-.5,2.28-.86,3.42l-3.29,10.31h-4.65L0,8.38h4.61l2.11,9.66c.15.76.3,1.81.46,3.14.16,1.33.29,2.74.37,4.24h.13c.2-1.43.41-2.68.61-3.75.2-1.07.45-2.08.75-3.05l3.16-10.23h4.43l3.12,10.23Z" style="fill:#111c41; stroke-width:0px;"/><path d="M36.52,20.76c.26,1.93.96,3.36,2.08,4.28s2.57,1.38,4.32,1.38c.94,0,1.87-.1,2.81-.31.94-.2,1.83-.51,2.68-.92l1.05,3.34c-1.9,1.02-4.24,1.54-7.02,1.54-1.76,0-3.29-.26-4.61-.77s-2.41-1.25-3.29-2.22-1.54-2.14-1.98-3.51-.66-2.91-.66-4.61c0-1.52.19-2.96.57-4.3.38-1.35.97-2.52,1.78-3.53.8-1.01,1.84-1.8,3.09-2.37,1.26-.57,2.77-.86,4.52-.86,1.43,0,2.7.22,3.8.66,1.1.44,2.02,1.05,2.77,1.84.75.79,1.3,1.74,1.67,2.85.37,1.11.55,2.33.55,3.64,0,.7-.05,1.39-.15,2.06-.1.67-.23,1.27-.37,1.8h-13.61ZM41.92,11.37c-1.76,0-3.08.59-3.97,1.76-.89,1.17-1.41,2.72-1.56,4.65h9.92v-.79c0-1.78-.34-3.17-1.03-4.15-.69-.98-1.81-1.47-3.36-1.47Z" style="fill:#111c41; stroke-width:0px;"/><path d="M61.53,26.47c1.49,0,2.55-.25,3.18-.75.63-.5.94-1.13.94-1.89,0-.97-.43-1.7-1.29-2.19-.86-.5-1.94-.94-3.23-1.32-.94-.26-1.81-.57-2.61-.92-.81-.35-1.49-.78-2.06-1.29-.57-.51-1.02-1.11-1.34-1.8-.32-.69-.48-1.51-.48-2.48,0-1.84.72-3.29,2.15-4.35,1.43-1.05,3.39-1.58,5.88-1.58,1.23,0,2.42.12,3.58.35,1.16.23,2.23.6,3.23,1.1l-1.05,3.47c-1.64-.85-3.45-1.27-5.44-1.27-1.35,0-2.32.21-2.92.61-.6.41-.9.97-.9,1.67,0,.79.32,1.39.97,1.8.64.41,1.52.79,2.63,1.14,1.2.41,2.26.83,3.18,1.25.92.42,1.7.92,2.33,1.47.63.56,1.1,1.2,1.43,1.93.32.73.48,1.58.48,2.55,0,1.79-.7,3.25-2.08,4.39-1.39,1.14-3.5,1.71-6.34,1.71-1.4,0-2.74-.12-3.99-.37-1.26-.25-2.34-.62-3.25-1.12l1.05-3.47c.79.41,1.7.74,2.74.99,1.04.25,2.11.37,3.23.37Z" style="fill:#669d41; stroke-width:0px;"/><path d="M78.83,20.76c.26,1.93.96,3.36,2.08,4.28s2.57,1.38,4.32,1.38c.94,0,1.87-.1,2.81-.31.94-.2,1.83-.51,2.68-.92l1.05,3.34c-1.9,1.02-4.24,1.54-7.02,1.54-1.76,0-3.29-.26-4.61-.77s-2.41-1.25-3.29-2.22-1.54-2.14-1.98-3.51-.66-2.91-.66-4.61c0-1.52.19-2.96.57-4.3.38-1.35.97-2.52,1.78-3.53.8-1.01,1.84-1.8,3.09-2.37,1.26-.57,2.77-.86,4.52-.86,1.43,0,2.7.22,3.8.66,1.1.44,2.02,1.05,2.77,1.84.75.79,1.3,1.74,1.67,2.85.37,1.11.55,2.33.55,3.64,0,.7-.05,1.39-.15,2.06-.1.67-.23,1.27-.37,1.8h-13.61ZM84.23,11.37c-1.76,0-3.08.59-3.97,1.76-.89,1.17-1.41,2.72-1.56,4.65h9.92v-.79c0-1.78-.34-3.17-1.03-4.15-.69-.98-1.81-1.47-3.36-1.47Z" style="fill:#669d41; stroke-width:0px;"/><path d="M102.97,29.58h-4.65V0h4.65v29.58Z" style="fill:#669d41; stroke-width:0px;"/><path d="M114.56,29.58h-4.65V0h4.65v29.58Z" style="fill:#669d41; stroke-width:0px;"/><path d="M125.97,11.76c.26-.44.56-.89.9-1.36.34-.47.72-.88,1.16-1.25.44-.37.94-.67,1.51-.9.57-.23,1.21-.35,1.91-.35.79,0,1.43.12,1.93.35.5.23.85.42,1.05.57l-1.14,4.39c-.67-.58-1.57-.88-2.68-.88-1.02,0-1.94.24-2.74.72-.81.48-1.44,1.21-1.91,2.17v14.35h-4.65V8.38h3.95l.7,3.38Z" style="fill:#111c41; stroke-width:0px;"/><path d="M141.69,20.76c.26,1.93.96,3.36,2.08,4.28s2.57,1.38,4.32,1.38c.94,0,1.87-.1,2.81-.31.94-.2,1.83-.51,2.68-.92l1.05,3.34c-1.9,1.02-4.24,1.54-7.02,1.54-1.76,0-3.29-.26-4.61-.77s-2.41-1.25-3.29-2.22-1.54-2.14-1.98-3.51-.66-2.91-.66-4.61c0-1.52.19-2.96.57-4.3.38-1.35.97-2.52,1.78-3.53.8-1.01,1.84-1.8,3.09-2.37,1.26-.57,2.77-.86,4.52-.86,1.43,0,2.7.22,3.8.66,1.1.44,2.02,1.05,2.77,1.84.75.79,1.3,1.74,1.67,2.85.37,1.11.55,2.33.55,3.64,0,.7-.05,1.39-.15,2.06-.1.67-.23,1.27-.37,1.8h-13.61ZM147.08,11.37c-1.76,0-3.08.59-3.97,1.76-.89,1.17-1.41,2.72-1.56,4.65h9.92v-.79c0-1.78-.34-3.17-1.03-4.15-.69-.98-1.81-1.47-3.36-1.47Z" style="fill:#111c41; stroke-width:0px;"/><path d="M165.65,29.58h-4.65V8.38h4.04l.61,2.98c.29-.38.67-.77,1.14-1.19.47-.41,1.01-.78,1.62-1.12.61-.34,1.29-.61,2.02-.83.73-.22,1.52-.33,2.37-.33,2.19,0,3.92.74,5.18,2.22,1.26,1.48,1.89,3.55,1.89,6.21v13.26h-4.65v-13.17c0-1.46-.3-2.6-.9-3.4-.6-.8-1.51-1.21-2.74-1.21s-2.36.31-3.38.92c-1.02.61-1.87,1.36-2.55,2.24v14.62Z" style="fill:#111c41; stroke-width:0px;"/><path d="M191.59,23.4c0,.97.17,1.7.5,2.19.34.5.96.75,1.87.75,1.14,0,2.18-.29,3.12-.88l1.01,3.38c-.67.41-1.4.72-2.17.92-.78.2-1.69.31-2.74.31-2.11,0-3.65-.53-4.63-1.6-.98-1.07-1.47-2.76-1.47-5.07v-11.54h-3.25v-3.47h3.29l1.1-6.06h3.38v6.06h6.28v3.47h-6.28v11.54Z" style="fill:#111c41; stroke-width:0px;"/><path d="M205.94,20.76c.26,1.93.96,3.36,2.08,4.28s2.57,1.38,4.32,1.38c.94,0,1.87-.1,2.81-.31.94-.2,1.83-.51,2.68-.92l1.05,3.34c-1.9,1.02-4.24,1.54-7.02,1.54-1.76,0-3.29-.26-4.61-.77s-2.41-1.25-3.29-2.22-1.54-2.14-1.98-3.51-.66-2.91-.66-4.61c0-1.52.19-2.96.57-4.3.38-1.35.97-2.52,1.78-3.53.8-1.01,1.84-1.8,3.09-2.37,1.26-.57,2.77-.86,4.52-.86,1.43,0,2.7.22,3.8.66,1.1.44,2.02,1.05,2.77,1.84.75.79,1.3,1.74,1.67,2.85.37,1.11.55,2.33.55,3.64,0,.7-.05,1.39-.15,2.06-.1.67-.23,1.27-.37,1.8h-13.61ZM211.34,11.37c-1.76,0-3.08.59-3.97,1.76-.89,1.17-1.41,2.72-1.56,4.65h9.92v-.79c0-1.78-.34-3.17-1.03-4.15-.69-.98-1.81-1.47-3.36-1.47Z" style="fill:#111c41; stroke-width:0px;"/><path d="M243.82,29.58h-3.99l-.66-3.16c-.56.94-1.37,1.78-2.44,2.52-1.07.75-2.36,1.12-3.88,1.12-1.29,0-2.47-.25-3.56-.75-1.08-.5-2.02-1.22-2.81-2.17-.79-.95-1.41-2.11-1.87-3.49-.45-1.38-.68-2.94-.68-4.7,0-1.49.2-2.9.59-4.24.4-1.33.97-2.5,1.73-3.51.76-1.01,1.7-1.81,2.81-2.41,1.11-.6,2.4-.9,3.86-.9.79,0,1.51.1,2.15.31.64.21,1.22.47,1.73.79.51.32.97.68,1.36,1.08.4.4.72.8.99,1.21V0h4.65v29.58ZM239.17,14.88c-.61-.94-1.35-1.68-2.22-2.24-.86-.56-1.84-.83-2.92-.83-1.58,0-2.88.6-3.91,1.8-1.02,1.2-1.54,2.98-1.54,5.35,0,1.32.14,2.43.42,3.34.28.91.66,1.65,1.14,2.22.48.57,1.04.99,1.67,1.25.63.26,1.29.4,2,.4s1.43-.16,2.08-.48c.66-.32,1.23-.78,1.71-1.36.48-.58.86-1.29,1.14-2.13.28-.83.42-1.76.42-2.79v-4.52Z" style="fill:#111c41; stroke-width:0px;"/><path d="M250.18,8.38h4.04l.61,2.98c.29-.38.67-.77,1.12-1.19.45-.41.98-.78,1.58-1.12.6-.34,1.26-.61,1.98-.83.72-.22,1.48-.33,2.3-.33,1.4,0,2.63.31,3.69.92,1.05.61,1.92,1.42,2.59,2.41.67,1,1.18,2.14,1.51,3.45.34,1.3.5,2.63.5,3.97,0,1.84-.22,3.48-.66,4.89-.44,1.42-1.05,2.61-1.84,3.58s-1.72,1.7-2.79,2.19c-1.07.5-2.23.75-3.49.75-1.58,0-2.91-.37-3.99-1.12-1.08-.75-1.92-1.59-2.5-2.52v11.54h-4.65V8.38ZM254.83,19.4c0,1.02.15,1.95.44,2.79.29.83.68,1.54,1.16,2.13.48.59,1.05,1.04,1.71,1.36.66.32,1.35.48,2.08.48s1.37-.13,2-.4c.63-.26,1.19-.69,1.67-1.27.48-.58.86-1.36,1.14-2.33.28-.97.42-2.14.42-3.51,0-2.19-.44-3.88-1.32-5.07s-2.06-1.78-3.56-1.78c-1.2,0-2.29.31-3.27.92-.98.61-1.81,1.36-2.48,2.24v4.43Z" style="fill:#669d41; stroke-width:0px;"/><path d="M279.94,11.76c.26-.44.56-.89.9-1.36.34-.47.72-.88,1.16-1.25.44-.37.94-.67,1.51-.9.57-.23,1.21-.35,1.91-.35.79,0,1.43.12,1.93.35.5.23.85.42,1.05.57l-1.14,4.39c-.67-.58-1.57-.88-2.68-.88-1.02,0-1.94.24-2.74.72-.81.48-1.44,1.21-1.91,2.17v14.35h-4.65V8.38h3.95l.7,3.38Z" style="fill:#669d41; stroke-width:0px;"/><path d="M290.96,18.96c0-1.52.21-2.96.64-4.3.42-1.35,1.06-2.52,1.91-3.53.85-1.01,1.92-1.8,3.2-2.37,1.29-.57,2.81-.86,4.56-.86s3.28.29,4.56.86c1.29.57,2.36,1.36,3.23,2.37.86,1.01,1.5,2.19,1.91,3.53.41,1.35.61,2.78.61,4.3s-.2,3-.61,4.35c-.41,1.35-1.05,2.52-1.91,3.53-.86,1.01-1.94,1.8-3.23,2.37s-2.81.86-4.56.86-3.28-.29-4.56-.86c-1.29-.57-2.36-1.36-3.2-2.37-.85-1.01-1.49-2.19-1.91-3.53-.42-1.35-.64-2.79-.64-4.35ZM295.61,18.96c0,2.22.45,4.02,1.36,5.4.91,1.38,2.34,2.06,4.3,2.06s3.4-.69,4.32-2.06c.92-1.38,1.38-3.17,1.38-5.4s-.46-3.98-1.38-5.35c-.92-1.38-2.36-2.06-4.32-2.06s-3.4.69-4.3,2.06c-.91,1.38-1.36,3.16-1.36,5.35Z" style="fill:#669d41; stroke-width:0px;"/><path d="M316.85,8.38h4.04l.61,2.98c.29-.38.67-.77,1.12-1.19.45-.41.98-.78,1.58-1.12.6-.34,1.26-.61,1.98-.83.72-.22,1.48-.33,2.3-.33,1.4,0,2.63.31,3.69.92,1.05.61,1.92,1.42,2.59,2.41.67,1,1.18,2.14,1.51,3.45.34,1.3.5,2.63.5,3.97,0,1.84-.22,3.48-.66,4.89-.44,1.42-1.05,2.61-1.84,3.58s-1.72,1.7-2.79,2.19c-1.07.5-2.23.75-3.49.75-1.58,0-2.91-.37-3.99-1.12-1.08-.75-1.92-1.59-2.5-2.52v11.54h-4.65V8.38ZM321.51,19.4c0,1.02.15,1.95.44,2.79.29.83.68,1.54,1.16,2.13.48.59,1.05,1.04,1.71,1.36.66.32,1.35.48,2.08.48s1.37-.13,2-.4c.63-.26,1.19-.69,1.67-1.27.48-.58.86-1.36,1.14-2.33.28-.97.42-2.14.42-3.51,0-2.19-.44-3.88-1.32-5.07s-2.06-1.78-3.56-1.78c-1.2,0-2.29.31-3.27.92-.98.61-1.81,1.36-2.48,2.24v4.43Z" style="fill:#669d41; stroke-width:0px;"/><path d="M345.25,20.76c.26,1.93.96,3.36,2.08,4.28,1.13.92,2.57,1.38,4.32,1.38.94,0,1.87-.1,2.81-.31.94-.2,1.83-.51,2.68-.92l1.05,3.34c-1.9,1.02-4.24,1.54-7.02,1.54-1.76,0-3.29-.26-4.61-.77-1.32-.51-2.41-1.25-3.29-2.22s-1.54-2.14-1.98-3.51-.66-2.91-.66-4.61c0-1.52.19-2.96.57-4.3.38-1.35.97-2.52,1.78-3.53.8-1.01,1.84-1.8,3.09-2.37,1.26-.57,2.77-.86,4.52-.86,1.43,0,2.7.22,3.8.66,1.1.44,2.02,1.05,2.76,1.84s1.3,1.74,1.67,2.85c.37,1.11.55,2.33.55,3.64,0,.7-.05,1.39-.15,2.06-.1.67-.23,1.27-.37,1.8h-13.61ZM350.65,11.37c-1.76,0-3.08.59-3.97,1.76-.89,1.17-1.41,2.72-1.56,4.65h9.92v-.79c0-1.78-.34-3.17-1.03-4.15-.69-.98-1.81-1.47-3.36-1.47Z" style="fill:#669d41; stroke-width:0px;"/><path d="M369.13,11.76c.26-.44.56-.89.9-1.36.34-.47.72-.88,1.16-1.25.44-.37.94-.67,1.51-.9.57-.23,1.21-.35,1.91-.35.79,0,1.43.12,1.93.35.5.23.85.42,1.05.57l-1.14,4.39c-.67-.58-1.57-.88-2.68-.88-1.02,0-1.94.24-2.74.72-.81.48-1.44,1.21-1.91,2.17v14.35h-4.65V8.38h3.95l.7,3.38Z" style="fill:#669d41; stroke-width:0px;"/><path d="M386.69,23.4c0,.97.17,1.7.5,2.19.34.5.96.75,1.87.75,1.14,0,2.18-.29,3.12-.88l1.01,3.38c-.67.41-1.4.72-2.17.92-.78.2-1.69.31-2.74.31-2.11,0-3.65-.53-4.63-1.6-.98-1.07-1.47-2.76-1.47-5.07v-11.54h-3.25v-3.47h3.29l1.1-6.06h3.38v6.06h6.28v3.47h-6.28v11.54Z" style="fill:#669d41; stroke-width:0px;"/><path d="M411.49,25.94c-.26.41-.61.83-1.03,1.27-.42.44-.92.83-1.49,1.19s-1.21.64-1.91.86c-.7.22-1.48.33-2.33.33-2.2,0-3.94-.66-5.22-1.98-1.29-1.32-1.93-3.39-1.93-6.23v-12.99h4.61v12.9c0,1.49.32,2.6.97,3.34.64.73,1.54,1.1,2.68,1.1,1.26,0,2.35-.34,3.27-1.03.92-.69,1.7-1.48,2.35-2.39v-13.91h4.65v19.44c0,1.84-.25,3.44-.75,4.78-.5,1.35-1.19,2.45-2.08,3.31-.89.86-1.96,1.5-3.2,1.91-1.24.41-2.63.61-4.15.61s-2.98-.19-4.37-.57c-1.39-.38-2.52-.86-3.4-1.45l1.14-3.64c1.9,1.17,3.95,1.76,6.15,1.76,1.9,0,3.39-.48,4.46-1.45,1.07-.97,1.6-2.68,1.6-5.14v-2.02Z" style="fill:#669d41; stroke-width:0px;"/><path d="M422.25,27.08c0-.82.26-1.53.79-2.13.53-.6,1.3-.9,2.33-.9s1.76.3,2.3.9c.54.6.81,1.31.81,2.13s-.27,1.53-.81,2.13c-.54.6-1.31.9-2.3.9s-1.8-.3-2.33-.9-.79-1.31-.79-2.13Z" style="fill:#111c41; stroke-width:0px;"/><path d="M443.8,26.42c.94,0,1.87-.11,2.81-.33.94-.22,1.83-.56,2.68-1.03l1.05,3.34c-1.96,1.11-4.23,1.67-6.8,1.67-1.76,0-3.29-.29-4.61-.86-1.32-.57-2.41-1.36-3.29-2.37-.88-1.01-1.54-2.19-1.98-3.53-.44-1.35-.66-2.79-.66-4.35s.22-2.96.66-4.3c.44-1.35,1.1-2.52,1.98-3.53.88-1.01,1.98-1.8,3.31-2.37,1.33-.57,2.9-.86,4.72-.86,1.17,0,2.3.12,3.38.37,1.08.25,2.09.64,3.03,1.16l-1.01,3.34c-1.58-.82-3.32-1.23-5.22-1.23-2.17,0-3.74.69-4.72,2.06-.98,1.38-1.47,3.16-1.47,5.35s.5,4.02,1.49,5.4c1,1.38,2.55,2.06,4.65,2.06Z" style="fill:#111c41; stroke-width:0px;"/><path d="M452.79,18.96c0-1.52.21-2.96.64-4.3.42-1.35,1.06-2.52,1.91-3.53.85-1.01,1.92-1.8,3.2-2.37,1.29-.57,2.81-.86,4.56-.86s3.28.29,4.56.86c1.29.57,2.36,1.36,3.23,2.37.86,1.01,1.5,2.19,1.91,3.53.41,1.35.62,2.78.62,4.3s-.21,3-.62,4.35c-.41,1.35-1.05,2.52-1.91,3.53-.86,1.01-1.94,1.8-3.23,2.37-1.29.57-2.81.86-4.56.86s-3.28-.29-4.56-.86c-1.29-.57-2.36-1.36-3.2-2.37-.85-1.01-1.49-2.19-1.91-3.53-.42-1.35-.64-2.79-.64-4.35ZM457.44,18.96c0,2.22.45,4.02,1.36,5.4.91,1.38,2.34,2.06,4.3,2.06s3.4-.69,4.32-2.06c.92-1.38,1.38-3.17,1.38-5.4s-.46-3.98-1.38-5.35c-.92-1.38-2.36-2.06-4.32-2.06s-3.39.69-4.3,2.06c-.91,1.38-1.36,3.16-1.36,5.35Z" style="fill:#111c41; stroke-width:0px;"/><path d="M483.21,29.58h-4.52V8.38h3.91l.61,2.98c.29-.38.64-.77,1.05-1.19.41-.41.88-.78,1.43-1.12.54-.34,1.15-.61,1.82-.83.67-.22,1.42-.33,2.24-.33,1.4,0,2.56.35,3.47,1.05.91.7,1.55,1.68,1.93,2.94.38-.53.81-1.02,1.29-1.49.48-.47,1.02-.89,1.6-1.27.58-.38,1.21-.68,1.89-.9s1.39-.33,2.15-.33c2.02,0,3.53.69,4.52,2.06,1,1.38,1.49,3.25,1.49,5.62v14h-4.52v-13.74c0-1.2-.19-2.14-.57-2.83-.38-.69-1.11-1.03-2.2-1.03-1.14,0-2.15.3-3.03.9-.88.6-1.58,1.35-2.11,2.26v14.44h-4.52v-13.74c0-1.2-.18-2.14-.55-2.83-.37-.69-1.09-1.03-2.17-1.03s-2.14.28-3.07.83c-.94.56-1.65,1.27-2.15,2.15v14.62Z" style="fill:#111c41; stroke-width:0px;"/></g></svg>