<?xml version="1.0" encoding="UTF-8"?><svg id="Layer_2" xmlns="http://www.w3.org/2000/svg" viewBox="0 0 148.14 108.93"><g id="Layer_1-2"><path d="M109.58,108.75v-7.74c3.83-1.39,9.05-5.62,9.05-11,0-.73,0-1.47-.16-2.12h-7.83v-9.86h6.03c-.33-1.88-.49-3.83-.49-5.71,0-10.43,7.83-17.44,19.64-17.44,4.56,0,8.07.98,9.86,1.96l-2.12,11.09c-1.71-.9-3.91-1.47-6.77-1.47-5.54,0-7.01,3.42-7.01,6.6,0,1.55.24,3.18.65,4.97h11v9.86h-9.7c-.08,1.55-.41,2.85-.9,4.24-.73,1.55-1.79,3.1-3.34,4.56v.16h20.62v11.9h-38.56Z" style="fill:#111c41; stroke-width:0px;"/><path d="M61.43,74.45v20.52h41.05v13.97h-55.02v-34.49h13.97ZM47.46,25.66L96.36,0l48.9,25.66v19.97h-13.97v-11.53l-34.93-18.33-34.93,18.33v11.53h-13.97v-19.97h0Z" style="fill:#111c41; fill-rule:evenodd; stroke-width:0px;"/><path d="M20.84,53.17c-3.79,0-6.87,3.07-6.87,6.87s3.07,6.87,6.87,6.87,6.87-3.07,6.87-6.87-3.07-6.87-6.87-6.87h0ZM40.47,53.05h62.01v27.94h-13.97v-13.97h-48.04c-2.87,8.07-10.58,13.85-19.64,13.85-11.51,0-20.84-9.33-20.84-20.84s9.33-20.84,20.84-20.84c9.06,0,16.76,5.78,19.64,13.85h0Z" style="fill:#669d41; fill-rule:evenodd; stroke-width:0px;"/></g></svg>