<?xml version="1.0" encoding="UTF-8"?><svg id="Layer_2" xmlns="http://www.w3.org/2000/svg" viewBox="0 0 23.94 16.28"><g id="Layer_1-2"><path d="M1.11.86l8.71,8.04s.07.05.1.09l1.65,1.52c.11.1.26.15.41.15s.3-.05.41-.15L22.83.86c-.14-.1-.31-.15-.5-.15H1.6c-.18,0-.35.06-.5.15h0ZM9.07,9.18L.72,1.47s-.01.08-.01.13v13.08c0,.17.05.32.13.46l8.23-5.96h0ZM14.34,9.67l-1.48,1.37c-.24.23-.57.34-.89.34s-.64-.11-.89-.34l-1.48-1.37L1.47,15.56s.09.01.14.01h20.73s.09,0,.14-.01l-8.13-5.89h0ZM23.22,1.47l-8.35,7.7,8.23,5.96c.08-.13.13-.29.13-.46V1.6s0-.09-.01-.13h0ZM1.6,0h20.73c.44,0,.84.18,1.13.47h0s.06.06.08.09c.03.01.05.03.07.06.04.04.07.09.08.15.15.24.24.53.24.84v13.08c0,.44-.18.84-.47,1.13h0s-.03.04-.05.05c-.02.02-.03.03-.05.04-.28.23-.64.38-1.03.38H1.6c-.44,0-.84-.18-1.13-.47h0c-.29-.29-.47-.69-.47-1.13V1.6c0-.44.18-.84.47-1.13h0c.29-.29.69-.47,1.13-.47h0Z" style="fill:#fff; stroke-width:0px;"/></g></svg>