<?xml version="1.0" encoding="UTF-8"?><svg id="Layer_2" xmlns="http://www.w3.org/2000/svg" viewBox="0 0 28.01 49.28"><g id="Layer_1-2"><path d="M10.33,4.74c-.4,0-.73-.33-.73-.73s.33-.73.73-.73h7.34c.4,0,.73.33.73.73s-.33.73-.73.73h-7.34Z" style="fill:#fff; stroke-width:0px;"/><path d="M20.26,4.74c-.4,0-.73-.33-.73-.73s.33-.73.73-.73h.07c.4,0,.73.33.73.73s-.33.73-.73.73h-.07Z" style="fill:#fff; stroke-width:0px;"/><path d="M9.99,43.1c-.04.1-.06.21-.06.32v1.15c0,.12.02.22.06.32.04.1.11.19.19.27h0c.08.08.17.14.27.19.1.04.2.06.32.06h6.47c.12,0,.22-.02.32-.06.1-.04.19-.11.27-.19.08-.08.14-.17.19-.27.04-.1.06-.21.06-.32v-1.15c0-.11-.02-.22-.06-.32-.04-.1-.11-.2-.18-.28h0c-.08-.08-.17-.14-.27-.18-.1-.04-.2-.06-.32-.06h-6.47c-.12,0-.22.02-.32.06-.1.04-.19.1-.27.18-.08.08-.14.17-.19.27h0ZM8.47,43.42c0-.31.06-.6.18-.88.12-.29.29-.54.5-.75.21-.21.46-.38.75-.5.27-.11.57-.18.88-.18h6.47c.31,0,.6.06.88.18.28.12.53.29.75.5h0c.21.21.38.47.5.75.12.27.18.57.18.88v1.15c0,.31-.06.61-.18.88-.12.28-.29.54-.5.75-.21.21-.46.38-.75.5-.27.11-.57.18-.88.18h-6.47c-.31,0-.61-.06-.88-.18-.28-.12-.53-.29-.75-.5h0c-.21-.21-.38-.46-.5-.75-.12-.27-.18-.57-.18-.88v-1.15h0Z" style="fill:#fff; stroke-width:0px;"/><path d="M4.14,38.49h19.72V8.3H4.14v30.19h0ZM24.59,39.96H3.41c-.4,0-.73-.33-.73-.73V7.57c0-.4.33-.73.73-.73h21.18c.41,0,.73.33.73.73v31.65c0,.4-.33.73-.73.73h0Z" style="fill:#fff; stroke-width:0px;"/><path d="M0,42.78V6.5c0-1.79.73-3.41,1.91-4.59.6-.6,1.31-1.08,2.11-1.41.77-.32,1.6-.49,2.48-.49h15.02c.87,0,1.71.18,2.48.49.79.33,1.51.81,2.11,1.41h0c.6.6,1.08,1.32,1.41,2.11.32.77.5,1.6.5,2.48v36.29c0,.87-.18,1.71-.5,2.48-.32.77-.79,1.47-1.37,2.07l-.04.04c-.6.6-1.31,1.08-2.11,1.41-.77.32-1.6.49-2.48.49H6.49c-.87,0-1.71-.18-2.48-.49-.79-.33-1.51-.81-2.11-1.41-.6-.6-1.08-1.32-1.41-2.11-.32-.77-.5-1.61-.5-2.48h0ZM1.46,6.5v36.29c0,.68.13,1.33.38,1.92.26.62.63,1.17,1.09,1.63.47.46,1.02.84,1.64,1.1.59.25,1.24.38,1.92.38h15.02c.68,0,1.33-.14,1.92-.38.61-.25,1.17-.63,1.63-1.1l.04-.03c.45-.46.81-1,1.06-1.6.24-.59.38-1.24.38-1.92V6.5c0-.68-.14-1.33-.38-1.92-.26-.62-.63-1.17-1.1-1.64-.46-.46-1.02-.84-1.64-1.1-.59-.25-1.24-.38-1.92-.38H6.49c-.68,0-1.33.13-1.92.38-.61.26-1.17.63-1.63,1.1-.91.91-1.48,2.17-1.48,3.55h0Z" style="fill:#fff; stroke-width:0px;"/></g></svg>