<?xml version="1.0" encoding="UTF-8"?><svg id="Layer_2" xmlns="http://www.w3.org/2000/svg" viewBox="0 0 23.94 23.94"><g id="Layer_1-2"><path d="M18.4,23.64c-1.31,0-6.04-.45-11.84-6.25C.76,11.58.31,6.85.31,5.54.31,3.39,3.08.32,3.79.31h1.57c.21,0,.41.13.49.33l2.32,5.48c.09.22.02.48-.17.63-2.19,1.65-2.91,2.15-2.92,2.98,0,1.78,7.35,9.14,9.13,9.14.84,0,1.4-.73,3.04-2.92.15-.19.41-.27.63-.17l5.43,2.32c.2.08.33.28.33.49v1.58c0,.71-3.08,3.48-5.23,3.48h0Z" style="fill:none; stroke:#fff; stroke-miterlimit:10; stroke-width:.61px;"/></g></svg>