<?xml version="1.0" encoding="UTF-8"?><svg id="Layer_2" xmlns="http://www.w3.org/2000/svg" viewBox="0 0 49.83 46.47"><g id="Layer_1-2"><path d="M24.73,31.03c.28,0,.56-.17.63-.52l1.19-11.91h-3.64l1.19,11.91c.07.35.35.52.63.52h0ZM32.8,15.68v-1.62h-1.92l-1.88-10.27h.41c.87,0,1.58-.71,1.58-1.58s-.71-1.58-1.58-1.58h-9.36c-.87,0-1.58.71-1.58,1.58s.71,1.58,1.58,1.58h.41l-1.88,10.27h-1.92v1.62c0,.85.69,1.54,1.54,1.54h13.05c.85,0,1.54-.69,1.54-1.54h0ZM42.36,24.87c-.19-.54-1.01-.96-1.83-.96l-1.61,7.29,6.21,1.46-2.77-7.78h0ZM37.19,23.91h-9.06l-.68,6.81c0,.07-.02.14-.03.2-.26,1.3-1.37,2.2-2.69,2.2s-2.43-.91-2.69-2.2c-.01-.07-.02-.14-.03-.2l-.68-6.81h-11.99c-.82,0-1.64.43-1.83.96l-2.23,6.26,27.62,7.54,4.28-14.77h0ZM48.83,43.02l-2.58-7.25-7.9-1.95-1.32,5.97,11.8,3.22h0ZM12.48,45.84h32.4l-28.17-8.15-4.23,8.15h0ZM13.06,36.64l-5.41,9.2H2.21c-1.2,0-1.85-.89-1.47-1.95l3.49-9.81,8.83,2.55h0Z" style="fill:none; stroke:#fff; stroke-miterlimit:10; stroke-width:1.26px;"/></g></svg>