<?xml version="1.0" encoding="UTF-8"?><svg id="Layer_2" xmlns="http://www.w3.org/2000/svg" viewBox="0 0 5.96 7.78"><g id="Layer_1-2"><path d="M5.96,6.74c0,.27-.08.51-.27.71-.23.2-.56.28-.94.28-.57.01-1.49.12-2.4-.04-.33-.05-.81-.33-1-.46C.62,6.75.12,5.89.1,4.99l-.1-3.97C0,.41.4.02.94,0c.27,0,.51.08.71.27.2.19.31.42.31.69l.03,1,2.83-.07c1.34-.03,1.5,1.91.05,1.94l-2.84.07.03,1.03c.15.81.75.9,1.38.85.54.02,1.12-.01,1.26-.02.7-.11,1.23.21,1.28.96h0" style="fill:#fff; fill-rule:evenodd; stroke-width:0px;"/></g></svg>