<?xml version="1.0" encoding="UTF-8"?><svg id="Layer_2" xmlns="http://www.w3.org/2000/svg" xmlns:xlink="http://www.w3.org/1999/xlink" viewBox="0 0 869.21 537.33"><defs><radialGradient id="radial-gradient" cx="434.86" cy="247.95" fx="434.86" fy="247.95" r="95.61" gradientUnits="userSpaceOnUse"><stop offset="0" stop-color="#000" stop-opacity="0"/><stop offset="1" stop-color="#fff" stop-opacity=".4"/></radialGradient><clipPath id="clippath"><path d="M434.87,343.56c-52.72,0-95.62-42.89-95.62-95.61s42.89-95.61,95.62-95.61,95.61,42.89,95.61,95.61-42.89,95.61-95.61,95.61" style="fill:url(#radial-gradient); opacity:.46; stroke-width:0px;"/></clipPath><radialGradient id="radial-gradient-2" cx="434.86" cy="247.95" fx="434.86" fy="247.95" r="95.61" gradientUnits="userSpaceOnUse"><stop offset="0" stop-color="#000" stop-opacity="0"/><stop offset="1" stop-color="#fff" stop-opacity=".3"/></radialGradient></defs><g id="Layer_1-2"><path d="M0,0v537.33h869.21V0H0" style="fill:none; stroke-width:0px;"/><polyline points="869.21 537.33 0 537.33 0 0 869.21 0 869.21 537.33" style="fill:#0e1d3f; stroke-width:0px;"/><polyline points="844.18 477.08 25.57 477.08 25.57 472.77 844.18 472.77 844.18 477.08" style="fill:#5c5f60; stroke-width:0px;"/><polyline points="203.14 477.08 25.57 477.08 25.57 472.77 203.14 472.77 203.14 477.08" style="fill:#a6a9aa; stroke-width:0px;"/><polygon points="79.44 477.08 25.57 477.08 25.57 472.77 79.44 472.77 79.44 477.08 79.44 477.08" style="fill:#659b41; stroke-width:0px;"/><path d="M434.87,343.56c-52.72,0-95.62-42.89-95.62-95.61s42.89-95.61,95.62-95.61,95.61,42.89,95.61,95.61-42.89,95.61-95.61,95.61" style="fill:url(#radial-gradient); opacity:.46;"/><g style="clip-path:url(#clippath);"><rect x="339.25" y="152.33" width="191.23" height="191.23" style="fill:url(#radial-gradient-2);"/></g><path d="M480.59,244.05l-64.64-38.83c-1.44-.95-3.28-1.04-4.8-.22-1.52.82-2.46,2.4-2.46,4.12v77.66c0,1.72.95,3.31,2.46,4.12.69.37,1.46.56,2.21.56.9,0,1.8-.26,2.58-.78l64.64-38.83c1.31-.87,2.09-2.33,2.09-3.9s-.79-3.03-2.09-3.9h0Z" style="fill:#fff; stroke-width:0px;"/><polygon points="110.44 492.69 110.44 513.9 125.26 503.29 110.44 492.69 110.44 492.69" style="fill:#fff; stroke-width:0px;"/><polygon points="131.3 513.9 127.83 513.9 127.83 492.69 131.3 492.69 131.3 513.9 131.3 513.9" style="fill:#fff; stroke-width:0px;"/><polygon points="54 488.11 54 518.47 75.2 503.29 54 488.11 54 488.11" style="fill:#fff; stroke-width:0px;"/><path d="M716.26,503.29c0,2.06-1.68,3.73-3.75,3.73s-3.75-1.67-3.75-3.73,1.69-3.73,3.75-3.73c2.07,0,3.75,1.68,3.75,3.73h0ZM720.98,500.62l-.59-1.43,1.25-3.27-1.82-1.81-3.23,1.31-1.43-.59-1.44-3.19h-2.57l-1.35,3.2-1.43.59-3.28-1.25-1.81,1.81,1.32,3.21-.59,1.42-3.21,1.42v2.56l3.22,1.34.59,1.42-1.25,3.27,1.82,1.81,3.22-1.31,1.43.59,1.44,3.19h2.57l1.35-3.21,1.43-.59,3.28,1.25,1.82-1.81-1.32-3.21.59-1.42,3.21-1.43v-2.56l-3.21-1.34h0Z" style="fill:#fff; stroke-width:0px;"/><polygon points="812.97 493.24 820 493.24 820 500.39 822.19 500.39 822.19 491.01 812.97 491.01 812.97 493.24 812.97 493.24" style="fill:#fff; stroke-width:0px;"/><polygon points="800.64 500.39 800.64 493.24 807.66 493.24 807.66 491.01 798.45 491.01 798.45 500.39 800.64 500.39 800.64 500.39" style="fill:#fff; stroke-width:0px;"/><polygon points="820 505.78 820 512.93 812.97 512.93 812.97 515.16 822.19 515.16 822.19 505.78 820 505.78 820 505.78" style="fill:#fff; stroke-width:0px;"/><polygon points="807.66 512.93 800.64 512.93 800.64 505.78 798.45 505.78 798.45 515.16 807.66 515.16 807.66 512.93 807.66 512.93" style="fill:#fff; stroke-width:0px;"/><path d="M773.57,502.33v9.16h-27.79v-16.8h27.79v7.64h0ZM769.61,492.3h-26.16v21.56h32.47v-21.56h-6.31Z" style="fill:#fff; stroke-width:0px;"/><path d="M166.29,501.78v7.65h-5.17c-.86,0-1.56-.72-1.56-1.59v-6.06c0-.88.7-1.59,1.56-1.59h5.17v1.59h0Z" style="fill:#fff; stroke-width:0px;"/><path d="M178.54,518.06c0,1.65-.92,2.03-2.06.85l-10.66-9.56v-9.07l10.64-9.32c1.14-1.16,2.08-.77,2.08.88v26.22h0Z" style="fill:#fff; stroke-width:0px;"/><path d="M181.32,508.21c.93-1.08,1.44-2.45,1.44-3.89,0-1.45-.51-2.81-1.44-3.89l1.15-1.17c1.24,1.39,1.91,3.17,1.91,5.06s-.68,3.67-1.92,5.06l-1.15-1.17" style="fill:#fff; stroke-width:0px;"/><path d="M186.16,513.12l-1.15-1.17c1.91-2.08,2.95-4.78,2.95-7.64s-1.05-5.55-2.95-7.63l1.15-1.16c2.21,2.39,3.43,5.5,3.43,8.8,0,3.3-1.22,6.41-3.43,8.8" style="fill:#c8cbd1; stroke-width:0px;"/><path d="M189.76,516.77l-1.15-1.17c2.86-3.06,4.44-7.05,4.44-11.28s-1.57-8.23-4.44-11.28l1.15-1.17c3.17,3.37,4.91,7.77,4.91,12.45s-1.74,9.08-4.91,12.45" style="fill:#989da9; stroke-width:0px;"/><path d="M266.54,504.94c0,1.21-.97,2.2-2.16,2.2h-56.53c-1.19,0-2.16-.98-2.16-2.2s.97-2.2,2.16-2.2h56.53c1.19,0,2.16.98,2.16,2.2h0Z" style="fill:#fff; stroke-width:0px;"/><path d="M252.49,504.94c0,3.64-2.9,6.6-6.48,6.6s-6.48-2.95-6.48-6.6,2.9-6.59,6.48-6.59,6.48,2.95,6.48,6.59h0Z" style="fill:#fff; stroke-width:0px;"/></g></svg>